# xmcd
#
# Track frame offsets: 
#        150
#        15455
#        30207
#        53319
#        72345
#        99284
#        130062
#        155148
#        170050
#
# Disc length: 2715 seconds
#
# Revision: 0
# Processed by: cddbd v1.5.2PL0 Copyright (c) Steve Scherf et al.
# Submitted via: ExactAudioCopy v0.95b4
#
DISCID=640a9909
DTITLE=West Road Blues Band - Blues Power
DYEAR=1974
DGENRE=Blues
TTITLE0=Tramp
TTITLE1=T-Bone Shuffle
TTITLE2=It's My Own Fault
TTITLE3=Cold Cold Feeling
TTITLE4=Drown in My Own Tears
TTITLE5=Nobody's Business
TTITLE6=First Time i Met the Blues
TTITLE7=Yakety Yak
TTITLE8=Blues After Hours
EXTD=
EXTT0=
EXTT1=
EXTT2=
EXTT3=
EXTT4=
EXTT5=
EXTT6=
EXTT7=
EXTT8=
PLAYORDER=
